<svg id="Слой_1" data-name="Слой 1" xmlns="http://www.w3.org/2000/svg" viewBox="0 0 1176.38 280.63">
    <defs>
        <style>.cls-1{fill:#0f6fa9;}.cls-2{fill:#0bf5fe;}.cls-3{fill:#fff;}</style>
    </defs>
    <rect class="cls-1" width="41.85" height="276.41"/>
    <rect class="cls-2" x="311.7" y="234.53" width="41.89" height="41.89"/>
    <path class="cls-3"
          d="M458.93,118.49v-93h16.34V72.25l44.25-46.78h20.06l-38.67,40,40.4,53h-19.8L489.75,76.63,475.27,91.51v27Z"/>
    <path class="cls-3"
          d="M586.75,120.08q-15.94,0-26.57-10.63a35.23,35.23,0,0,1-10.63-25.91,35.27,35.27,0,0,1,10.76-26Q571.08,46.86,587,46.87T613.66,57.5a35.32,35.32,0,0,1,10.7,26,35.1,35.1,0,0,1-10.77,25.85Q602.83,120.09,586.75,120.08Zm.27-14q9.57,0,15.41-6.51a23.18,23.18,0,0,0,5.85-16.08,22.67,22.67,0,0,0-6.11-16A20.15,20.15,0,0,0,586.75,61q-9.43,0-15.28,6.51a23.18,23.18,0,0,0-5.85,16.08,22.73,22.73,0,0,0,6.12,15.95A19.89,19.89,0,0,0,587,106.13Z"/>
    <path class="cls-3" d="M641.63,118.49v-97h16.08v97Z"/>
    <path class="cls-3"
          d="M710.86,120.08q-15.42,0-25.71-10.23t-10.3-26.44q0-15.28,9.7-25.91t24.58-10.63q15.95,0,24.78,10.83t8.84,26.9a28.79,28.79,0,0,1-.27,4.52H690.93q1.32,8.37,6.77,13.09a19.78,19.78,0,0,0,13.42,4.72q10.36,0,19-8.37l9.43,8.37Q728.67,120.09,710.86,120.08ZM690.79,78.49h36a22.62,22.62,0,0,0-5.44-13.29A15.82,15.82,0,0,0,709,60a16.29,16.29,0,0,0-12.23,5.12A22.94,22.94,0,0,0,690.79,78.49Z"/>
    <path class="cls-3"
          d="M783,119.82a46.76,46.76,0,0,1-29.76-10.5l7.17-10.9q11.43,8.64,23,8.64c3.45,0,6.13-.68,8-2.06a6.72,6.72,0,0,0,2.86-5.78,5.47,5.47,0,0,0-1-3.25,9,9,0,0,0-3.52-2.6,33.22,33.22,0,0,0-4.26-1.72c-1.15-.36-3-.93-5.71-1.73l-1.19-.4c-2.49-.71-4.59-1.39-6.32-2.06a50.42,50.42,0,0,1-5.78-2.72A21.37,21.37,0,0,1,761.35,81,16.46,16.46,0,0,1,758,75.7a18.43,18.43,0,0,1-1.33-7.17A19.12,19.12,0,0,1,763.81,53q7.11-5.85,17.87-5.85a46,46,0,0,1,25.78,8l-6.38,11.42q-10.89-6.64-19.8-6.64-4.65,0-7.24,2a6.36,6.36,0,0,0-2.59,5.32,5.27,5.27,0,0,0,2.33,4.12A16.66,16.66,0,0,0,778.43,74q2.33.87,7.5,2.59a5.14,5.14,0,0,0,.67.27,2.06,2.06,0,0,0,.66.13,79.85,79.85,0,0,1,7.84,2.86,42.31,42.31,0,0,1,6.71,3.78,16.33,16.33,0,0,1,5.38,5.92,17.24,17.24,0,0,1,1.86,8.17q0,10.63-7.3,16.34T783,119.82Z"/>
    <path class="cls-3"
          d="M825.4,118.49V48.33h16.08V59.22q8.37-12.34,21.92-12.35,11.7,0,18.34,7.31t6.64,19.66v44.65H872.31V78.62q0-8.24-3.92-12.68t-11.1-4.46a15,15,0,0,0-11.43,4.65q-4.38,4.66-4.38,12.76v39.6Z"/>
    <path class="cls-3" d="M908.05,37.57V22.28h17.27V37.57Zm.66,80.92V48.33h16.08v70.16Z"/>
    <path class="cls-3"
          d="M945.78,118.49v-97h16.08V79.42L991,48.33h19.54L982.59,76.9l28.84,41.59H992.82L971.7,88.19l-9.84,10.23v20.07Z"/>
    <path class="cls-3"
          d="M1056.47,120.08q-15.95,0-26.58-10.63a35.27,35.27,0,0,1-10.63-25.91,35.28,35.28,0,0,1,10.77-26q10.76-10.7,26.71-10.69t26.64,10.63a35.31,35.31,0,0,1,10.69,26,35.09,35.09,0,0,1-10.76,25.85Q1072.56,120.09,1056.47,120.08Zm.27-14q9.55,0,15.41-6.51A23.18,23.18,0,0,0,1078,83.54a22.63,22.63,0,0,0-6.12-16A20.11,20.11,0,0,0,1056.47,61q-9.43,0-15.28,6.51a23.18,23.18,0,0,0-5.85,16.08,22.76,22.76,0,0,0,6.11,15.95A19.91,19.91,0,0,0,1056.74,106.13Z"/>
    <path class="cls-3" d="M1132.61,119l-28.84-70.69h17.28l18.87,51.56,19-51.56h16.87L1147.09,119Z"/>
    <path class="cls-3" d="M458.93,277.94v-93h69.23v14.88H475.27v25.38h46.91v14.88H475.27v37.87Z"/>
    <path class="cls-3"
          d="M544.23,277.94V207.78h16.08v15.81q7.44-17.93,24.85-17.14v17h-.93q-10.9,0-17.41,7.11t-6.51,20.66v26.71Z"/>
    <path class="cls-3"
          d="M632.46,279.54q-15.94,0-26.57-10.63A36.82,36.82,0,0,1,606,217q10.76-10.7,26.71-10.7T659.37,217a36.72,36.72,0,0,1-.07,51.89Q648.55,279.54,632.46,279.54Zm.27-14q9.57,0,15.41-6.51A23.18,23.18,0,0,0,654,243a22.7,22.7,0,0,0-6.11-16,20.18,20.18,0,0,0-15.42-6.57q-9.44,0-15.28,6.51A23.17,23.17,0,0,0,611.33,243a22.71,22.71,0,0,0,6.12,15.95A19.87,19.87,0,0,0,632.73,265.58Z"/>
    <path class="cls-3"
          d="M686.41,277.94V207.78h16.08v10.9q8.37-12.36,21.92-12.36,11.7,0,18.34,7.31t6.64,19.66v44.65H733.32V238.08q0-8.24-3.92-12.69t-11.1-4.45a15,15,0,0,0-11.43,4.65q-4.38,4.65-4.38,12.75v39.6Z"/>
    <path class="cls-3"
          d="M792.31,279.14q-20.19,0-20.19-20.6V221.6h-8.91V207.78h8.91V188.51h16.07v19.27h18.87V221.6H788.19V256q0,8.76,8.64,8.77a22,22,0,0,0,10-2.4v13.16A29.08,29.08,0,0,1,792.31,279.14Z"/>
    <path class="cls-3"
          d="M855.43,279.54q-15.42,0-25.71-10.24t-10.3-26.44q0-15.27,9.7-25.91t24.58-10.63q15.94,0,24.78,10.83t8.84,26.91a28.65,28.65,0,0,1-.27,4.51H835.5q1.32,8.38,6.77,13.09a19.76,19.76,0,0,0,13.42,4.72q10.37,0,19-8.37l9.43,8.37Q873.24,279.53,855.43,279.54ZM835.36,238h36a22.57,22.57,0,0,0-5.44-13.29,15.81,15.81,0,0,0-12.36-5.18,16.28,16.28,0,0,0-12.23,5.11A22.88,22.88,0,0,0,835.36,238Z"/>
    <path class="cls-3"
          d="M903.53,277.94V207.78h16.08v10.9q8.37-12.36,21.92-12.36,11.7,0,18.34,7.31t6.64,19.66v44.65H950.43V238.08q0-8.24-3.92-12.69t-11.09-4.45A15,15,0,0,0,924,225.59q-4.38,4.65-4.38,12.75v39.6Z"/>
    <path class="cls-3"
          d="M1014.88,279.4q-13.15,0-22.86-9.9t-9.7-26.77q0-16.74,9.64-26.58a31,31,0,0,1,22.92-9.83q14.36,0,23.92,12.36V180.94h16.08v97H1038.8V266.25Q1029.48,279.4,1014.88,279.4Zm-10.43-20.19a19.39,19.39,0,0,0,28.63-.14q6-6.37,6-16.34t-6-16.15a19.61,19.61,0,0,0-28.7-.13q-5.85,6.18-5.85,16.54Q998.53,253,1004.45,259.21Z"/>
    <polygon class="cls-2" points="221.01 0 81.41 139.6 111 169.19 279.41 0.79 278.63 0 221.01 0"/>
    <polygon class="cls-2" points="277.35 276.42 111 110.07 81.41 139.66 218.17 276.42 277.35 276.42"/>
</svg>